<svg width="42" height="41" viewBox="0 0 42 41" fill="none" xmlns="http://www.w3.org/2000/svg">
<path fill-rule="evenodd" clip-rule="evenodd" d="M20.5106 1.37756C9.65069 1.37756 0.854614 10.1297 0.854614 20.9354C0.854614 29.5897 6.48115 36.8995 14.2944 39.4909C15.2772 39.662 15.6458 39.0753 15.6458 38.5619C15.6458 38.0974 15.6212 36.5572 15.6212 34.9192C10.6826 35.8238 9.40499 33.7213 9.01187 32.6212C8.79074 32.0589 7.8325 30.3231 6.99712 29.8586C6.30916 29.4919 5.32636 28.5874 6.97255 28.5629C8.52047 28.5385 9.62612 29.9809 9.99467 30.5676C11.7637 33.5257 14.5893 32.6945 15.7195 32.1811C15.8915 30.9099 16.4074 30.0542 16.9726 29.5653C12.5991 29.0763 8.02907 27.3895 8.02907 19.9086C8.02907 17.7817 8.79074 16.0215 10.0438 14.6524C9.84725 14.1635 9.15929 12.1588 10.2404 9.46961C10.2404 9.46961 11.8866 8.95622 15.6458 11.4743C17.2183 11.0342 18.889 10.8142 20.5598 10.8142C22.2305 10.8142 23.9013 11.0342 25.4738 11.4743C29.233 8.93177 30.8792 9.46961 30.8792 9.46961C31.9603 12.1588 31.2723 14.1635 31.0758 14.6524C32.3288 16.0215 33.0905 17.7572 33.0905 19.9086C33.0905 27.4139 28.4959 29.0763 24.1224 29.5653C24.835 30.1765 25.4492 31.3499 25.4492 33.1835C25.4492 35.7993 25.4247 37.9018 25.4247 38.5619C25.4247 39.0753 25.7932 39.6864 26.776 39.4909C34.5401 36.8995 40.1667 29.5653 40.1667 20.9354C40.1667 10.1297 31.3706 1.37756 20.5106 1.37756Z" fill="#24292E"/>
</svg>
