<svg width="108" height="38" viewBox="0 0 108 38" fill="none" xmlns="http://www.w3.org/2000/svg">
<path d="M10.08 19.4C10.28 18.88 10.59 18.06 11.01 16.94C11.45 15.82 11.79 14.97 12.03 14.39C12.27 13.79 12.58 13.05 12.96 12.17C13.36 11.29 13.69 10.66 13.95 10.28C14.21 9.88 14.52 9.46 14.88 9.02C15.5 8.26 16.28 7.88 17.22 7.88C17.4 7.88 17.66 7.93 18 8.03C17.24 8.47 16.3 9.87 15.18 12.23C14.06 14.59 13.03 17.04 12.09 19.58C11.17 22.12 10.19 24.43 9.15 26.51C8.13 28.57 7.3 29.6 6.66 29.6C6.4 29.6 6.12 29.54 5.82 29.42C6.2 28.6 6.73 27.3 7.41 25.52C8.11 23.72 8.71 22.33 9.21 21.35C6.43 18.37 4.29 15.76 2.79 13.52C1.31 11.28 0.57 9.57 0.57 8.39C0.57 8.19 0.69 8.02 0.93 7.88C1.17 7.72 1.44 7.64 1.74 7.64C2.04 7.64 2.3 7.81 2.52 8.15C2.74 8.49 3 9.02 3.3 9.74C3.62 10.44 4 11.24 4.44 12.14C4.9 13.02 5.62 14.12 6.6 15.44C7.58 16.76 8.74 18.08 10.08 19.4ZM18.5051 22.91C18.4651 23.31 18.4451 23.58 18.4451 23.72C18.4451 24.92 18.8051 25.85 19.5251 26.51C20.2651 27.17 21.1351 27.5 22.1351 27.5C23.1351 27.5 23.9451 27.36 24.5651 27.08C25.2051 26.8 25.6651 26.5 25.9451 26.18C26.6651 25.28 27.3251 24.83 27.9251 24.83C28.1451 24.83 28.4051 24.89 28.7051 25.01C28.5051 25.99 27.7451 26.89 26.4251 27.71C25.1251 28.51 23.4851 28.91 21.5051 28.91C20.1051 28.91 18.8951 28.47 17.8751 27.59C16.8751 26.69 16.3751 25.47 16.3751 23.93C16.3751 22.39 16.6751 20.9 17.2751 19.46C17.8951 18 18.7751 16.76 19.9151 15.74C21.0751 14.7 22.2451 14.18 23.4251 14.18C24.6251 14.18 25.5851 14.43 26.3051 14.93C27.0451 15.41 27.4151 16.12 27.4151 17.06C27.4151 18.8 26.6351 20.24 25.0751 21.38C23.5351 22.5 21.8951 23.06 20.1551 23.06C19.6951 23.06 19.1451 23.01 18.5051 22.91ZM20.7851 21.92C21.7251 21.92 22.5651 21.62 23.3051 21.02C24.0451 20.42 24.5651 19.79 24.8651 19.13C25.1851 18.47 25.3451 17.87 25.3451 17.33C25.3451 16.79 25.1351 16.32 24.7151 15.92C24.2951 15.5 23.8051 15.29 23.2451 15.29C22.2451 15.29 21.3151 15.98 20.4551 17.36C19.6151 18.74 19.0151 20.17 18.6551 21.65C19.5351 21.83 20.2451 21.92 20.7851 21.92ZM32.1748 16.55C33.1948 14.99 34.6648 14.21 36.5848 14.21C38.5048 14.21 40.0348 14.99 41.1748 16.55C42.3348 18.11 42.9148 19.89 42.9148 21.89C42.9148 23.87 42.2848 25.55 41.0248 26.93C39.7648 28.31 38.1648 29 36.2248 29C34.2848 29 32.8748 28.46 31.9948 27.38C31.1148 26.28 30.6748 24.74 30.6748 22.76C30.6748 20.18 31.1748 18.11 32.1748 16.55ZM33.4948 18.14C33.2348 18.92 33.0348 19.7 32.8948 20.48C32.7748 21.26 32.7148 21.99 32.7148 22.67C32.7148 23.33 32.7648 23.94 32.8648 24.5C32.9648 25.04 33.1348 25.58 33.3748 26.12C33.6148 26.64 33.9748 27.06 34.4548 27.38C34.9348 27.68 35.5048 27.83 36.1648 27.83C37.5048 27.83 38.6248 27.28 39.5248 26.18C40.4448 25.08 40.9048 23.75 40.9048 22.19C40.9048 20.63 40.4848 19.12 39.6448 17.66C38.8248 16.18 37.8148 15.44 36.6148 15.44C35.8948 15.44 35.2648 15.69 34.7248 16.19C34.1848 16.69 33.7748 17.34 33.4948 18.14ZM50.4694 8.99C50.4694 8.03 53.9094 7.55 60.7894 7.55C62.3694 7.55 64.3994 7.62 66.8794 7.76C69.3594 7.88 70.6394 8.06 70.7194 8.3C70.6794 9.2 69.8494 9.65 68.2294 9.65C67.7694 9.65 66.9994 9.6 65.9194 9.5C64.8394 9.4 63.9094 9.35 63.1294 9.35C62.3694 9.35 61.9894 9.52 61.9894 9.86C61.9894 14.16 61.8894 20.57 61.6894 29.09C61.2694 29.39 60.6494 29.54 59.8294 29.54C59.8094 28.66 59.7994 27.61 59.7994 26.39L59.9494 13.43C59.9494 11.87 59.9294 10.56 59.8894 9.5C59.4694 9.46 58.9194 9.44 58.2394 9.44C57.5794 9.44 56.5394 9.5 55.1194 9.62C53.6994 9.72 52.6994 9.77 52.1194 9.77C51.0194 9.77 50.4694 9.51 50.4694 8.99ZM68.7959 16.55C69.8159 14.99 71.2859 14.21 73.2059 14.21C75.1259 14.21 76.6559 14.99 77.7959 16.55C78.9559 18.11 79.5359 19.89 79.5359 21.89C79.5359 23.87 78.9059 25.55 77.6459 26.93C76.3859 28.31 74.7859 29 72.8459 29C70.9059 29 69.4959 28.46 68.6159 27.38C67.7359 26.28 67.2959 24.74 67.2959 22.76C67.2959 20.18 67.7959 18.11 68.7959 16.55ZM70.1159 18.14C69.8559 18.92 69.6559 19.7 69.5159 20.48C69.3959 21.26 69.3359 21.99 69.3359 22.67C69.3359 23.33 69.3859 23.94 69.4859 24.5C69.5859 25.04 69.7559 25.58 69.9959 26.12C70.2359 26.64 70.5959 27.06 71.0759 27.38C71.5559 27.68 72.1259 27.83 72.7859 27.83C74.1259 27.83 75.2459 27.28 76.1459 26.18C77.0659 25.08 77.5259 23.75 77.5259 22.19C77.5259 20.63 77.1059 19.12 76.2659 17.66C75.4459 16.18 74.4359 15.44 73.2359 15.44C72.5159 15.44 71.8859 15.69 71.3459 16.19C70.8059 16.69 70.3959 17.34 70.1159 18.14ZM94.8129 28.16C94.4529 28.54 94.0429 28.73 93.5829 28.73C92.7229 28.73 92.0829 28.27 91.6629 27.35C91.2429 26.43 90.9929 25.31 90.9129 23.99C90.8529 22.67 90.8129 21.35 90.7929 20.03C90.7729 18.71 90.6629 17.59 90.4629 16.67C90.2829 15.75 89.9329 15.29 89.4129 15.29C88.7129 15.29 88.1129 15.92 87.6129 17.18C87.1329 18.44 86.7929 19.84 86.5929 21.38C86.0329 25.68 85.4929 28.09 84.9729 28.61C84.6129 28.79 84.3029 28.88 84.0429 28.88C83.7829 28.88 83.5629 28.85 83.3829 28.79C82.9629 26.95 82.6929 23.78 82.5729 19.28C82.5329 17.04 82.4929 15.59 82.4529 14.93C82.8729 14.65 83.2329 14.51 83.5329 14.51C83.8329 14.51 84.0729 14.54 84.2529 14.6C84.3529 15.46 84.4029 17.22 84.4029 19.88C84.4229 22.54 84.4429 24.07 84.4629 24.47C84.5629 24.05 84.6829 23.37 84.8229 22.43C84.9829 21.49 85.1229 20.72 85.2429 20.12C85.3629 19.5 85.5529 18.78 85.8129 17.96C86.0729 17.14 86.3629 16.49 86.6829 16.01C87.0029 15.51 87.4429 15.09 88.0029 14.75C88.5629 14.39 89.1929 14.21 89.8929 14.21C90.8329 14.21 91.5129 14.64 91.9329 15.5C92.3729 16.34 92.6129 17.39 92.6529 18.65C92.6929 19.91 92.7129 21.19 92.7129 22.49C92.7329 23.79 92.8929 24.98 93.1929 26.06C93.5129 27.14 94.0529 27.84 94.8129 28.16ZM102 14C103.82 14 105.08 14.74 105.78 16.22C106.16 17 106.47 17.74 106.71 18.44C106.95 19.14 107.11 20.1 107.19 21.32C107.31 23.18 107.37 25.3 107.37 27.68C107.37 30.04 106.8 31.92 105.66 33.32C104.54 34.74 102.89 35.45 100.71 35.45C98.5505 35.45 96.7505 34.75 95.3105 33.35C95.7105 32.95 96.1405 32.75 96.6005 32.75C97.0805 32.75 97.7305 32.95 98.5505 33.35C99.3905 33.77 100.28 33.98 101.22 33.98C102.16 33.98 102.94 33.76 103.56 33.32C104.18 32.9 104.64 32.3 104.94 31.52C105.44 30.14 105.69 28.44 105.69 26.42C105.69 26.12 105.66 25.01 105.6 23.09C105.06 24.73 104.29 26.09 103.29 27.17C102.29 28.23 101.16 28.76 99.9005 28.76C98.6405 28.76 97.7105 28.2 97.1105 27.08C96.5305 25.94 96.2405 24.65 96.2405 23.21C96.2405 21.77 96.4405 20.37 96.8405 19.01C97.2405 17.63 97.8905 16.45 98.7905 15.47C99.6905 14.49 100.76 14 102 14ZM98.8205 18.56C98.5605 19.44 98.3705 20.27 98.2505 21.05C98.1305 21.83 98.0705 22.62 98.0705 23.42C98.0705 24.2 98.2305 25.07 98.5505 26.03C98.8905 26.99 99.3805 27.47 100.02 27.47C101.28 27.47 102.4 26.53 103.38 24.65C104.36 22.75 104.85 20.84 104.85 18.92C104.85 18.26 104.54 17.52 103.92 16.7C103.32 15.86 102.56 15.44 101.64 15.44C101 15.44 100.43 15.74 99.9305 16.34C99.4505 16.94 99.0805 17.68 98.8205 18.56Z" fill="white"/>
</svg>
